# xmcd
#
# Track frame offsets:
#	264
#	17783
#	35526
#	56846
#	66909
#	77383
#	91039
#	112306
#	129855
#	141195
#	156152
#	170185
#
# Disc length: 2531 seconds
#
# Revision: 1
# Processed by: cddbd v1.5.2PL0 Copyright (c) Steve Scherf et al.
# Submitted via: audiograbber 1.83.01
#
DISCID=a209e00c
DTITLE=Chelsea Crowell - Chelsea Crowell
DYEAR=2009
DGENRE=Country
TTITLE0=Tremelo Trees
TTITLE1=Famous
TTITLE2=I Want My Seven Years Back
TTITLE3=Heart's Mistake
TTITLE4=Sometimes Love
TTITLE5=Never Be a Beggar
TTITLE6=The Run
TTITLE7=In Your Arms Again
TTITLE8=Eddie Brown
TTITLE9=Where the Hell is Robert E. Lee
TTITLE10=Someday
TTITLE11=Lost Aimless Beauty
EXTD=
EXTT0=
EXTT1=
EXTT2=
EXTT3=
EXTT4=
EXTT5=
EXTT6=
EXTT7=
EXTT8=
EXTT9=
EXTT10=
EXTT11=
PLAYORDER=
